<svg id="Layer_1" data-name="Layer 1" xmlns="http://www.w3.org/2000/svg" viewBox="0 0 115.84 123.61"><defs><style>.cls-1{fill:white;}</style></defs><title>assistance</title><path class="cls-1" d="M44,123.34h0c34.85,10.62,73.59-39.21,77.7-96.05C122.42,18,111.5-1.5,95,1.47c0,0-8.55,1.26-8.66,5.79s-4.67,27.1.88,30.88A79.77,79.77,0,0,0,97.4,43.88s2.63,1.45,1.37,4c0,0-7.63,31.74-26,45.54a5.43,5.43,0,0,1-5.41.5c-3.57-1.83-12-8.52-13.46-8.71s-2.55-1.25-8.38,5.23S33.43,100.58,30.92,105.1a8.19,8.19,0,0,0-.33,5C34.58,121.76,44,123.34,44,123.34Z" transform="translate(-5.93 -1.17)"/><path class="cls-1" d="M42.67,7.67A36.75,36.75,0,1,0,79.42,44.42,36.75,36.75,0,0,0,42.67,7.67Zm0,16c4.38,0,6.12,2.53,6.12,6.57s-1,10.17-2.53,17.36c-0.45,2-1.24,2.92-3.6,2.92s-3.15-.9-3.6-2.92c-1.57-7.19-2.53-13.32-2.53-17.36S38.29,23.66,42.68,23.66Zm0,41.52A6.29,6.29,0,1,1,49,58.88,6.28,6.28,0,0,1,42.68,65.18Z" transform="translate(-5.93 -1.17)"/></svg>